<?xml version="1.0" encoding="utf-8" ?><svg xmlns="http://www.w3.org/2000/svg" xmlns:xlink="http://www.w3.org/1999/xlink" width="1024" height="1024" viewBox="0 0 1024 1024"><path fill="white" d="M0 0L1024 0L1024 1024L0 1024L0 0Z"/><path fill="#F1F0E9" d="M396.311 180.249L547.273 180.024C565.856 179.972 584.44 180.046 603.022 180.244C617.403 180.303 635.869 179.929 649.901 181.185C698.106 185.274 743.383 206.021 777.953 239.864C815.357 275.959 838.176 324.552 842.063 376.386C842.915 387.367 842.607 399.431 842.645 410.505C842.87 475.773 843.056 541.042 842.996 606.313C842.984 619.35 843.09 632.429 842.242 645.437C839.207 696.619 817.217 744.491 781.551 781.188C749.984 813.18 709.065 834.311 664.704 841.529C652.431 843.471 641.235 843.938 628.875 844.102C612.54 844.332 595.633 844.022 579.25 843.991L486 843.958L420.077 844.115C408.563 844.13 394.309 844.492 382.987 843.884C349.204 842.323 316.294 832.649 287.04 815.681C273.45 807.77 258.109 796.606 246.823 785.606C206.052 746.462 182.676 692.607 181.924 636.092C181.327 589.001 182.031 540.139 182.02 492.898L181.988 425.824C181.963 393.447 180.76 365.115 189.721 333.685C209.548 264.143 264.903 208.336 334.568 188.648C355.921 182.614 373.898 180.509 396.311 180.249Z"/><path fill="#E2830D" d="M536.131 329.572C541.125 321.383 547.045 303.834 556.116 300.686C562.375 298.514 569.919 303.831 571.366 310.457C572.146 313.889 571.442 317.491 569.428 320.378C566.705 324.349 558.805 326.498 554.613 328.992C551.726 330.709 549.446 332.373 546.719 334.349C571.108 351.59 582.038 373.596 581.424 403.491C583.557 405.975 585.661 408.513 587.967 410.834C599.502 407.674 614.096 408.628 625.623 411.567C651.094 418.062 671.65 440.129 678.868 465.034C690.564 505.388 667.031 548.727 625.98 559.321C618.248 561.303 610.252 562.044 602.288 561.517C596.963 570.719 592.619 577.376 585.569 585.441C554.566 620.906 504.256 630.282 463.473 605.786C444.232 594.229 433.131 581.521 422.132 562.015C416.484 562.07 410.84 561.672 405.256 560.826C385.982 557.767 369.104 548.016 357.616 532.121C345.443 515.471 340.415 494.652 343.647 474.282C347.965 447.542 365.187 424.417 390.559 414.399C406.159 408.239 419.829 408.226 436.259 410.913C438.414 408.608 440.68 405.785 442.731 403.341C442.596 400.144 442.626 398.237 442.835 395.042C444.499 368.645 456.186 349.095 477.667 334.063C475.192 332.29 472.54 330.35 469.832 328.983C463.224 325.649 454.395 323.883 453.081 315.134C452.58 311.757 453.46 308.32 455.524 305.6C457.586 302.837 460.676 301.023 464.093 300.569C467.24 300.168 470.414 301.078 472.869 303.088C478.189 307.398 483.957 322.542 488.628 329.717C508.131 323.961 516.417 323.964 536.131 329.572Z"/><path fill="#E2830D" d="M536.131 329.572C541.125 321.383 547.045 303.834 556.116 300.686C562.375 298.514 569.919 303.831 571.366 310.457C572.146 313.889 571.442 317.491 569.428 320.378C566.705 324.349 558.805 326.498 554.613 328.992C551.726 330.709 549.446 332.373 546.719 334.349C571.108 351.59 582.038 373.596 581.424 403.491C583.557 405.975 585.661 408.513 587.967 410.834C597.9 423.241 602.605 432.311 608.794 446.862L415.671 446.978C418.102 437.125 429.323 418.685 436.259 410.913C438.414 408.608 440.68 405.785 442.731 403.341C442.596 400.144 442.626 398.237 442.835 395.042C444.499 368.645 456.186 349.095 477.667 334.063C475.192 332.29 472.54 330.35 469.832 328.983C463.224 325.649 454.395 323.883 453.081 315.134C452.58 311.757 453.46 308.32 455.524 305.6C457.586 302.837 460.676 301.023 464.093 300.569C467.24 300.168 470.414 301.078 472.869 303.088C478.189 307.398 483.957 322.542 488.628 329.717C508.131 323.961 516.417 323.964 536.131 329.572Z"/><path fill="#040404" d="M536.131 329.572C541.125 321.383 547.045 303.834 556.116 300.686C562.375 298.514 569.919 303.831 571.366 310.457C572.146 313.889 571.442 317.491 569.428 320.378C566.705 324.349 558.805 326.498 554.613 328.992C551.726 330.709 549.446 332.373 546.719 334.349C571.108 351.59 582.038 373.596 581.424 403.491C561.908 385.336 539.972 375.224 512.848 374.674C488.37 374.179 460.358 385.954 442.932 403.207L442.835 395.042C444.499 368.645 456.186 349.095 477.667 334.063C475.192 332.29 472.54 330.35 469.832 328.983C463.224 325.649 454.395 323.883 453.081 315.134C452.58 311.757 453.46 308.32 455.524 305.6C457.586 302.837 460.676 301.023 464.093 300.569C467.24 300.168 470.414 301.078 472.869 303.088C478.189 307.398 483.957 322.542 488.628 329.717C508.131 323.961 516.417 323.964 536.131 329.572Z"/><path fill="#FABF6A" d="M587.967 410.834C599.502 407.674 614.096 408.628 625.623 411.567C651.094 418.062 671.65 440.129 678.868 465.034C690.564 505.388 667.031 548.727 625.98 559.321C618.248 561.303 610.252 562.044 602.288 561.517L603.955 558.499C609.337 546.46 613.387 533.868 616.033 520.949C618.662 511.626 618.352 494.21 617.806 484.636C615.45 469.168 613.585 461.785 608.794 446.862C602.605 432.311 597.9 423.241 587.967 410.834Z"/><path fill="#FABF6A" d="M422.132 562.015C416.484 562.07 410.84 561.672 405.256 560.826C385.982 557.767 369.104 548.016 357.616 532.121C345.443 515.471 340.415 494.652 343.647 474.282C347.965 447.542 365.187 424.417 390.559 414.399C406.159 408.239 419.829 408.226 436.259 410.913C429.323 418.685 418.102 437.125 415.671 446.978C410.188 460.193 408.54 470.534 406.721 484.532C405.505 493.317 406.313 511.971 408.472 520.953C410.682 531.718 413.239 541.637 417.64 551.741C418.352 553.378 419.991 556.73 420.465 558.319L422.132 562.015Z"/><path fill="#E2830D" d="M420.465 558.319L603.955 558.499L602.288 561.517C596.963 570.719 592.619 577.376 585.569 585.441C554.566 620.906 504.256 630.282 463.473 605.786C444.232 594.229 433.131 581.521 422.132 562.015L420.465 558.319Z"/><path fill="#040404" d="M415.671 446.978L608.794 446.862C613.585 461.785 615.45 469.168 617.806 484.636C617.197 484.841 411.261 485.455 406.721 484.532C408.54 470.534 410.188 460.193 415.671 446.978Z"/><path fill="#040404" d="M408.472 520.953L558.045 520.964C577.125 520.957 597.052 521.267 616.033 520.949C613.387 533.868 609.337 546.46 603.955 558.499L420.465 558.319C419.991 556.73 418.352 553.378 417.64 551.741C413.239 541.637 410.682 531.718 408.472 520.953Z"/><path fill="#040404" d="M423.09 650.766L441.701 650.829C442.283 662.434 441.983 676.649 441.996 688.449C453.639 678.575 470.286 677.828 481.925 688.285C489.108 694.817 493.393 703.941 493.833 713.64C494.359 724.663 491.094 733.084 483.819 741.158C469.347 754.315 455.103 752.01 441.133 739.716L440.945 748.315L423.055 748.407C423.279 715.86 423.291 683.312 423.09 650.766Z"/><path fill="#F1F0E9" d="M456.165 698.027C465.709 696.979 474.313 703.826 475.433 713.362C476.553 722.899 469.771 731.553 460.244 732.745C450.614 733.95 441.846 727.08 440.714 717.441C439.582 707.803 446.518 699.087 456.165 698.027Z"/><path fill="#040404" d="M505.609 650.656L523.002 650.56L522.985 687.854C556.803 662.95 588.388 710.326 562.441 740.785C548.841 754.194 535.883 751.52 522.586 740.171L522.506 748.191C517.525 748.498 510.649 748.367 505.513 748.401L505.609 650.656Z"/><path fill="#F1F0E9" d="M532.711 698.569C536.29 698.31 539.229 698.04 542.692 699.199C557.538 704.17 556.924 726.514 542.754 731.843C542.46 731.979 542.165 732.115 541.87 732.252C517.909 735.956 514.223 704.934 532.711 698.569Z"/><path fill="#040404" d="M368.916 680.756C388.117 677.529 406.31 690.441 409.601 709.63C412.892 728.82 400.04 747.056 380.862 750.411C361.593 753.782 343.252 740.856 339.945 721.576C336.639 702.296 349.625 683.998 368.916 680.756Z"/><path fill="#F1F0E9" d="M371.12 698.314C380.615 695.987 390.187 701.841 392.441 711.353C394.695 720.865 388.768 730.392 379.239 732.573C369.813 734.731 360.411 728.881 358.181 719.472C355.951 710.062 361.728 700.616 371.12 698.314Z"/><path fill="#040404" d="M687.777 680.65C706.659 678.182 722.853 690.659 724.45 709.727C724.784 713.722 724.642 716.861 724.397 720.884C708.559 721.152 692.718 721.196 676.879 721.018C682.917 736.189 700.352 738.145 710.005 725.371C712.196 727.499 713.877 728.634 716.333 730.385C718.196 731.803 720.386 733.073 722.391 734.312C721.894 735.165 721.369 736.003 720.82 736.823C716.019 743.909 709.657 748.006 700.92 749.659C667.78 755.932 646.06 721.826 664.257 694.124C669.429 686.25 678.309 682.085 687.777 680.65Z"/><path fill="#F1F0E9" d="M690.925 695.664C699.14 696.27 704.609 700.254 706.41 708.429C702.44 708.308 698.564 708.149 694.586 708.1C688.827 708.11 683.068 708.072 677.31 707.985C679.066 702.02 682.343 697.037 689.001 695.961L690.925 695.664Z"/><path fill="#040404" d="M610.654 680.629C631.029 678.221 646.009 688.807 648.032 709.805C648.384 713.457 648.155 716.951 647.984 720.613C643.152 721.232 636.766 720.922 631.862 720.931C621.337 720.948 610.596 720.433 600.099 720.864C604.393 730.957 611.378 735.484 623.033 733.214C627.778 732.29 630.864 729.39 633.431 725.38C635.201 726.875 637.387 728.455 639.253 729.876C641.416 731.378 643.492 733.066 645.566 734.696C634.491 752.072 612.855 754.87 595.869 744.324C579.895 734.405 577.57 708.74 587.816 694.087C593.426 686.065 601.118 682.328 610.654 680.629Z"/><path fill="#F1F0E9" d="M612.602 696.103C623.215 695.673 626.718 698.433 630.34 708.441C626.744 708.376 623.291 708.194 619.711 708.075L600.8 707.779C603.163 701.679 606.061 697.913 612.602 696.103Z"/><path fill="#040404" d="M309.022 682.041C314.836 681.961 321.559 682.288 327.441 682.455L327.497 729.35C327.497 735.297 327.524 741.332 327.451 747.272C327.284 760.797 326.645 770.577 312.417 776.08C306.753 777.571 301.758 777.325 295.958 777.255L295.938 761.692C300.169 761.442 308.214 759.884 308.674 754.797C309.351 747.317 309.048 738.879 309.036 731.366C308.949 714.924 308.944 698.482 309.022 682.041Z"/><path fill="#040404" d="M315.015 650.113C320.809 648.448 326.851 651.822 328.472 657.63C330.092 663.437 326.67 669.453 320.85 671.028C315.094 672.585 309.159 669.209 307.557 663.466C305.954 657.722 309.284 651.761 315.015 650.113Z"/></svg>